<svg xmlns="http://www.w3.org/2000/svg" viewBox="0 0 100 115" fill="none">
  <defs>
    <linearGradient id="shieldGrad" x1="50" y1="0" x2="50" y2="115" gradientUnits="userSpaceOnUse">
      <stop offset="0%" stop-color="#E8621A"/>
      <stop offset="100%" stop-color="#F07A2A"/>
    </linearGradient>
  </defs>
  <!-- Shield shape -->
  <path d="M50 2 L95 22 L95 62 C95 88 72 106 50 113 C28 106 5 88 5 62 L5 22 Z" fill="url(#shieldGrad)"/>
  <!-- White R letterform -->
  <!-- Vertical stem -->
  <rect x="28" y="30" width="13" height="52" fill="white"/>
  <!-- Top bowl of R -->
  <path d="M28 30 L28 30 L56 30 C66 30 72 36 72 46 C72 56 66 62 56 62 L41 62 L41 30" fill="white"/>
  <!-- Inner cutout for bowl -->
  <path d="M41 33 L41 33 L55 33 C62 33 68 37 68 46 C68 55 62 59 55 59 L41 59 Z" fill="#F07030"/>
  <!-- Leg of R (diagonal slash style) -->
  <path d="M41 62 L72 82 L65 82 L34 62 Z" fill="white"/>
</svg>
